HIERARCHY
ROOT Hips
{
	OFFSET 40.855900 -6.116446 100.179001
	CHANNELS 6 Xposition Yposition Zposition Xrotation Yrotation Zrotation
	JOINT spine
	{
		OFFSET 0.000000 -0.507025 8.817039
		CHANNELS 3 Xrotation Yrotation Zrotation
		JOINT spine1
		{
			OFFSET 0.000000 -0.000002 10.776604
			CHANNELS 3 Xrotation Yrotation Zrotation
			JOINT spine2
			{
				OFFSET 0.000000 -0.000001 10.325897
				CHANNELS 3 Xrotation Yrotation Zrotation
				JOINT Neck
				{
					OFFSET 0.000000 -1.263955 26.511002
					CHANNELS 3 Xrotation Yrotation Zrotation
					JOINT Head
					{
						OFFSET 0.000000 -0.000001 8.009659
						CHANNELS 3 Xrotation Yrotation Zrotation
						End Site
						{
							OFFSET 0.000000 6.393857 19.387894
						}
					}
				}
				JOINT RightShoulder
				{
					OFFSET -4.347950 0.605420 11.151199
					CHANNELS 3 Xrotation Yrotation Zrotation
					JOINT RightArm
					{
						OFFSET 0.000000 -0.000002 14.625793
						CHANNELS 3 Xrotation Yrotation Zrotation
						JOINT RightArmRoll
						{
							OFFSET 0.000000 -0.000001 7.383408
							CHANNELS 3 Xrotation Yrotation Zrotation
							JOINT RightForeArm
							{
								OFFSET 0.000000 -0.000003 21.505203
								CHANNELS 3 Xrotation Yrotation Zrotation
								JOINT RightForeArmRoll
								{
									OFFSET 0.000000 -0.000001 8.285324
									CHANNELS 3 Xrotation Yrotation Zrotation
									JOINT RightHand
									{
										OFFSET 0.000000 -0.000003 16.626801
										CHANNELS 3 Xrotation Yrotation Zrotation
										End Site
										{
											OFFSET 0.000000 0.000000 0.100006
										}
									}
								}
							}
						}
					}
				}
				JOINT LeftShoulder
				{
					OFFSET 4.347950 0.605420 11.151199
					CHANNELS 3 Xrotation Yrotation Zrotation
					JOINT LeftArm
					{
						OFFSET 0.000000 -0.000002 14.625793
						CHANNELS 3 Xrotation Yrotation Zrotation
						JOINT LeftArmRoll
						{
							OFFSET 0.000000 -0.000001 7.383408
							CHANNELS 3 Xrotation Yrotation Zrotation
							JOINT LeftForeArm
							{
								OFFSET 0.000000 -0.000003 21.505203
								CHANNELS 3 Xrotation Yrotation Zrotation
								JOINT LeftForeArmRoll
								{
									OFFSET 0.000000 -0.000001 8.285324
									CHANNELS 3 Xrotation Yrotation Zrotation
									JOINT LeftHand
									{
										OFFSET 0.000000 -0.000003 16.626801
										CHANNELS 3 Xrotation Yrotation Zrotation
										End Site
										{
											OFFSET 0.000000 0.000000 0.100006
										}
									}
								}
							}
						}
					}
				}
			}
		}
	}
	JOINT RightUpLeg
	{
		OFFSET -7.815102 1.202170 -1.433090
		CHANNELS 3 Xrotation Yrotation Zrotation
		JOINT RightUpLegRoll
		{
			OFFSET 0.000000 -0.000003 19.495895
			CHANNELS 3 Xrotation Yrotation Zrotation
			JOINT RightLeg
			{
				OFFSET 0.000000 0.000004 -24.142700
				CHANNELS 3 Xrotation Yrotation Zrotation
				JOINT RightLegRoll
				{
					OFFSET 0.000000 -0.000004 24.221703
					CHANNELS 3 Xrotation Yrotation Zrotation
					JOINT RightFoot
					{
						OFFSET 0.000000 -0.000003 20.160500
						CHANNELS 3 Xrotation Yrotation Zrotation
						JOINT RightToeBase
						{
							OFFSET 0.000000 -0.000003 16.853195
							CHANNELS 3 Xrotation Yrotation Zrotation
							End Site
							{
								OFFSET 0.007145 0.940778 8.161865
							}
						}
					}
				}
			}
		}
	}
	JOINT LeftUpLeg
	{
		OFFSET 7.815102 1.202170 -1.433090
		CHANNELS 3 Xrotation Yrotation Zrotation
		JOINT LeftUpLegRoll
		{
			OFFSET 0.000000 -0.000003 19.496002
			CHANNELS 3 Xrotation Yrotation Zrotation
			JOINT LeftLeg
			{
				OFFSET 0.000000 -0.000004 24.142593
				CHANNELS 3 Xrotation Yrotation Zrotation
				JOINT LeftLegRoll
				{
					OFFSET 0.000000 -0.000004 24.445602
					CHANNELS 3 Xrotation Yrotation Zrotation
					JOINT LeftFoot
					{
						OFFSET 0.000000 -0.000003 19.936600
						CHANNELS 3 Xrotation Yrotation Zrotation
						JOINT LeftToeBase
						{
							OFFSET 0.000000 -0.000003 16.853195
							CHANNELS 3 Xrotation Yrotation Zrotation
							End Site
							{
								OFFSET -0.032013 0.940779 8.161865
							}
						}
					}
				}
			}
		}
	}
}
MOTION
Frames: 10
Frame Time: 0.041667
39.015903 -0.632766 106.177025 2.235007 1.359685 1.759520 -2.501542 0.086638 0.139494 -1.000484 0.168562 0.281895 0.644586 0.171931 0.279861 0.986775 9.082096 -1.495335 11.126040 -5.535485 -1.499833 -21.337803 -48.359372 -25.419369 -135.952525 -102.639411 -103.429199 0.000001 -0.000025 0.000001 10.828981 -3.915569 -0.112175 -0.000006 0.000008 -3.000379 -5.000236 -7.999599 0.000144 -16.928906 55.151776 19.960381 -135.461871 119.899121 109.613635 0.000001 -0.000024 0.000000 10.254529 3.085999 0.753251 -0.000007 -0.000007 3.000002 -5.000190 7.998693 -0.000183 -11.753117 -182.916673 -0.772705 179.999991 -0.000005 -1.016996 154.360090 -3.060465 -1.765929 -0.000006 0.000006 0.329087 69.614476 6.781918 2.380660 24.811834 -7.361387 0.338876 -13.758832 176.801291 1.267027 -0.000004 -0.000004 -1.106940 -28.075696 1.910942 1.394263 -0.000000 -0.000001 -0.362018 68.738334 -6.809156 -2.368649 24.474863 7.355970 0.038702 
39.003502 -0.585322 105.938011 2.266482 1.376502 1.706756 -2.491334 0.088152 0.141731 -0.980071 0.171542 0.286402 0.665000 0.174964 0.284332 1.016982 9.231101 -1.488766 10.959621 -5.687965 -1.485406 -21.497942 -48.952225 -25.609159 -134.575272 -102.337824 -102.031360 0.000001 -0.000026 0.000002 10.923711 -3.853952 -0.117644 -0.000006 0.000008 -3.000375 -5.000239 -7.999600 0.000144 -17.030440 55.417761 20.086225 -135.074695 119.230255 109.339581 0.000000 -0.000026 0.000000 10.775137 3.117228 0.744705 -0.000008 -0.000006 2.999999 -5.000191 7.998691 -0.000183 -11.883301 -183.115924 -0.837778 179.999991 -0.000005 -1.014005 154.249345 -3.062132 -1.774008 -0.000006 0.000006 0.330437 69.610146 6.781272 2.383613 24.774300 -7.361979 0.358589 -13.937216 176.912459 1.291164 -0.000004 -0.000004 -1.105830 -28.377988 1.920687 1.411343 -0.000000 -0.000001 -0.366920 68.776522 -6.809072 -2.366980 24.417703 7.356016 0.040964 
38.997398 -0.542897 105.759010 2.296798 1.392021 1.654315 -2.480900 0.089614 0.144421 -0.959206 0.174401 0.291812 0.685864 0.177888 0.289709 1.051198 9.370280 -1.483947 10.789793 -5.825859 -1.475276 -21.661745 -49.532867 -25.802052 -133.100019 -102.047398 -100.546463 0.000000 -0.000024 0.000002 11.008100 -3.799692 -0.123089 -0.000007 0.000009 -3.000380 -5.000241 -7.999600 0.000147 -17.128158 55.678517 20.207140 -134.665458 118.569407 109.058382 0.000001 -0.000023 -0.000001 11.263750 3.159967 0.734012 -0.000006 -0.000002 2.999998 -5.000191 7.998692 -0.000178 -12.014502 -183.309081 -0.900088 179.999991 -0.000005 -1.010999 154.130623 -3.062675 -1.782090 -0.000007 0.000006 0.331893 69.605276 6.780556 2.386578 24.768653 -7.362074 0.361588 -14.112417 177.022480 1.315489 -0.000003 -0.000004 -1.104850 -28.680446 1.928264 1.428169 0.000002 -0.000001 -0.371823 68.814388 -6.808969 -2.365229 24.409114 7.356019 0.041295 
38.993103 -0.522824 105.543015 2.325629 1.405941 1.602657 -2.470300 0.090943 0.147602 -0.938032 0.176977 0.298197 0.707038 0.180541 0.296063 1.092422 9.499466 -1.481481 10.614486 -5.947344 -1.470219 -21.826998 -50.097242 -25.995193 -131.521549 -101.766998 -98.971866 0.000000 -0.000027 0.000000 11.080383 -3.754532 -0.128401 -0.000003 0.000008 -3.000380 -5.000244 -7.999603 0.000145 -17.220900 55.933502 20.321730 -134.232724 117.919022 108.769383 0.000003 -0.000025 -0.000002 11.710490 3.214604 0.721024 -0.000006 -0.000004 3.000001 -5.000188 7.998691 -0.000180 -12.146436 -183.497144 -0.959425 179.999991 -0.000005 -1.009005 154.002761 -3.060256 -1.790352 -0.000006 0.000006 0.333467 69.600324 6.779942 2.389269 24.801648 -7.361540 0.344256 -14.283726 177.133293 1.340637 -0.000003 -0.000004 -1.103980 -28.982357 1.932852 1.444476 0.000001 -0.000001 -0.376710 68.851339 -6.808913 -2.363442 24.459307 7.355979 0.039314 
39.022701 -0.510626 105.338005 2.352670 1.417924 1.552281 -2.459630 0.092058 0.151308 -0.916686 0.179108 0.305627 0.728384 0.182761 0.303467 1.143639 9.618479 -1.482010 10.431554 -6.050598 -1.470992 -21.990803 -50.641399 -26.185204 -129.832156 -101.495388 -97.302233 0.000001 -0.000024 0.000003 11.138573 -3.720227 -0.133458 -0.000007 0.000008 -3.000370 -5.000236 -7.999601 0.000144 -17.307576 56.182455 20.428737 -133.774446 117.281451 108.471177 0.000002 -0.000025 -0.000003 12.105751 3.281536 0.705645 -0.000008 -0.000001 2.999999 -5.000191 7.998695 -0.000182 -12.279247 -183.677174 -1.016376 179.999991 -0.000004 -1.006000 153.864436 -3.055755 -1.799301 -0.000005 0.000006 0.335177 69.595987 6.779267 2.391913 24.880161 -7.360365 0.303031 -14.449851 177.243887 1.367945 -0.000003 -0.000004 -1.103240 -29.283292 1.933593 1.459963 0.000000 -0.000001 -0.381560 68.887048 -6.808885 -2.361639 24.578791 7.355897 0.034603 
39.008904 -0.483628 105.119011 2.377610 1.427680 1.503648 -2.448945 0.092879 0.155579 -0.895311 0.180631 0.314175 0.749760 0.184387 0.311997 1.207857 9.727129 -1.486182 10.238845 -6.133787 -1.478347 -22.150377 -51.161447 -26.368739 -128.023672 -101.231620 -95.532053 0.000001 -0.000026 0.000000 11.181089 -3.698520 -0.138118 -0.000007 0.000009 -3.000368 -5.000241 -7.999599 0.000144 -17.386972 56.424937 20.526744 -133.289093 116.659194 108.162869 0.000000 -0.000025 -0.000003 12.439644 3.361187 0.687873 -0.000008 -0.000003 2.999999 -5.000186 7.998695 -0.000180 -12.412651 -183.851139 -1.070507 179.999991 -0.000004 -1.004006 153.714486 -3.047342 -1.808085 -0.000007 0.000006 0.337036 69.592627 6.778675 2.394211 25.011065 -7.358688 0.234314 -14.609985 177.355233 1.398291 -0.000004 -0.000004 -1.102630 -29.582543 1.929665 1.474320 0.000001 -0.000001 -0.386354 68.921171 -6.808833 -2.359731 24.777956 7.355777 0.026761 
39.005905 -0.474409 104.918015 2.400131 1.434870 1.457244 -2.438302 0.093326 0.160452 -0.874044 0.181384 0.323911 0.771025 0.185257 0.321725 1.288075 9.825236 -1.494636 10.034380 -6.195030 -1.492984 -22.302543 -51.653548 -26.542103 -126.086071 -100.974880 -93.653491 0.000002 -0.000025 0.000003 11.206048 -3.691147 -0.142280 -0.000008 0.000006 -3.000368 -5.000242 -7.999601 0.000144 -17.457912 56.660603 20.614370 -132.775517 116.054545 107.844063 0.000003 -0.000025 0.000000 12.702361 3.453984 0.667843 -0.000005 -0.000006 3.000002 -5.000185 7.998689 -0.000178 -12.546597 -184.017085 -1.122234 179.999991 -0.000005 -1.001997 153.551614 -3.035887 -1.817166 -0.000006 0.000006 0.339059 69.590865 6.778141 2.396226 25.201064 -7.356880 0.134503 -14.763090 177.470240 1.432033 -0.000004 -0.000004 -1.102160 -29.879581 1.920234 1.487217 0.000000 -0.000001 -0.391075 68.953178 -6.808765 -2.358049 25.067252 7.355655 0.015353 
38.991501 -0.454633 104.685997 2.419934 1.439206 1.413555 -2.427794 0.093318 0.165963 -0.853028 0.181206 0.334909 0.792042 0.185210 0.332724 1.387304 9.912613 -1.508032 9.815913 -6.232490 -1.515572 -22.444082 -52.113831 -26.701537 -124.007986 -100.724656 -91.657922 0.000001 -0.000024 0.000002 11.211572 -3.699857 -0.145849 -0.000004 0.000006 -3.000367 -5.000242 -7.999599 0.000144 -17.519184 56.889117 20.690197 -132.231697 115.470031 107.513140 0.000001 -0.000028 0.000000 12.884196 3.560403 0.645813 -0.000006 -0.000006 3.000000 -5.000189 7.998691 -0.000178 -12.680968 -184.174043 -1.171774 179.999991 -0.000005 -1.000003 153.374507 -3.020484 -1.826170 -0.000005 0.000006 0.341262 69.591315 6.777578 2.397895 25.456856 -7.355622 -0.000003 -14.908092 177.587910 1.470539 -0.000003 -0.000004 -1.101830 -30.173699 1.904501 1.498314 -0.000000 -0.000001 -0.395702 68.982663 -6.808663 -2.356416 25.456945 7.355612 -0.000000 
39.012203 -0.389029 104.453018 2.436868 1.439837 1.372151 -2.416963 0.093416 0.172552 -0.831369 0.181206 0.348073 0.813700 0.185368 0.345886 1.498632 9.982212 -1.526822 9.589768 -6.238933 -1.546821 -22.586182 -52.553272 -26.861450 -121.818254 -100.497628 -89.576319 0.000002 -0.000028 -0.000003 11.194586 -3.727513 -0.148880 -0.000007 0.000006 -3.000370 -5.000242 -7.999601 0.000145 -17.568613 57.107205 20.751576 -131.659519 114.906841 107.184171 -0.000000 -0.000021 -0.000002 12.982398 3.690705 0.620171 -0.000005 -0.000005 2.999999 -5.000188 7.998689 -0.000181 -12.813838 -184.322067 -1.218336 179.999991 -0.000005 -0.997995 153.193589 -3.001409 -1.835499 -0.000006 0.000006 0.342091 69.569445 6.772234 2.410462 25.801668 -7.356099 -0.191403 -15.039160 177.711086 1.513312 -0.000003 -0.000004 -1.101540 -30.450725 1.885072 1.507619 0.000000 -0.000001 -0.398613 68.989719 -6.809995 -2.353629 25.982183 7.355782 -0.018484 
38.984104 -0.382087 104.228012 2.451209 1.436505 1.332173 -2.405393 0.094128 0.180503 -0.808252 0.182391 0.363979 0.836817 0.186744 0.361778 1.613542 10.029101 -1.550485 9.362981 -6.211123 -1.586051 -22.740362 -52.984424 -27.036488 -119.555741 -100.308022 -87.446140 0.000000 -0.000027 -0.000002 11.154904 -3.774161 -0.151525 -0.000006 0.000012 -3.000366 -5.000238 -7.999597 0.000146 -17.605603 57.312896 20.797760 -131.062096 114.363677 106.868138 -0.000001 -0.000029 0.000003 13.006099 3.851908 0.589756 -0.000006 -0.000008 3.000002 -5.000189 7.998692 -0.000178 -12.943819 -184.458274 -1.262109 179.999991 -0.000005 -0.994006 153.017916 -2.981587 -1.844976 -0.000007 0.000007 0.340390 69.506478 6.758552 2.442527 26.244358 -7.360672 -0.451808 -15.153215 177.838783 1.559599 -0.000003 -0.000004 -1.101200 -30.700915 1.864829 1.515484 -0.000001 -0.000001 -0.398641 68.960240 -6.813841 -2.348559 26.656606 7.356481 -0.039018 
